<mxfile host="Electron" agent="Mozilla/5.0 (Macintosh; Intel Mac OS X 10_15_7) AppleWebKit/537.36 (KHTML, like Gecko) draw.io/24.7.17 Chrome/128.0.6613.36 Electron/32.0.1 Safari/537.36" version="24.7.17">
  <diagram name="Page-1" id="KRjhpnWxl2KcXfI8E4p7">
    <mxGraphModel dx="1941" dy="822" grid="1" gridSize="10" guides="1" tooltips="1" connect="1" arrows="1" fold="1" page="1" pageScale="1" pageWidth="827" pageHeight="1169" math="0" shadow="0">
      <root>
        <mxCell id="0" />
        <mxCell id="1" parent="0" />
        <mxCell id="l9Mz849p4_vfrACw8KPh-40" value="USER" style="swimlane;fontStyle=1;align=center;verticalAlign=top;childLayout=stackLayout;horizontal=1;startSize=26;horizontalStack=0;resizeParent=1;resizeParentMax=0;resizeLast=0;collapsible=1;marginBottom=0;whiteSpace=wrap;html=1;" parent="1" vertex="1">
          <mxGeometry x="220" y="20" width="160" height="180" as="geometry">
            <mxRectangle x="40" y="30" width="120" height="30" as="alternateBounds" />
          </mxGeometry>
        </mxCell>
        <mxCell id="l9Mz849p4_vfrACw8KPh-41" value="+ First name: String&lt;div&gt;+Last name:String&lt;/div&gt;&lt;div&gt;+numberTel:int&lt;/div&gt;&lt;div&gt;+Email:String&lt;br&gt;&lt;div&gt;&lt;br&gt;&lt;/div&gt;&lt;/div&gt;" style="text;strokeColor=none;fillColor=none;align=left;verticalAlign=top;spacingLeft=4;spacingRight=4;overflow=hidden;rotatable=0;points=[[0,0.5],[1,0.5]];portConstraint=eastwest;whiteSpace=wrap;html=1;" parent="l9Mz849p4_vfrACw8KPh-40" vertex="1">
          <mxGeometry y="26" width="160" height="74" as="geometry" />
        </mxCell>
        <mxCell id="l9Mz849p4_vfrACw8KPh-42" value="" style="line;strokeWidth=1;fillColor=none;align=left;verticalAlign=middle;spacingTop=-1;spacingLeft=3;spacingRight=3;rotatable=0;labelPosition=right;points=[];portConstraint=eastwest;strokeColor=inherit;" parent="l9Mz849p4_vfrACw8KPh-40" vertex="1">
          <mxGeometry y="100" width="160" height="8" as="geometry" />
        </mxCell>
        <mxCell id="l9Mz849p4_vfrACw8KPh-43" value="&lt;div&gt;&lt;div&gt;+ Create()&lt;div&gt;+Update()&lt;/div&gt;&lt;div&gt;&lt;br&gt;&lt;div&gt;&lt;br&gt;&lt;/div&gt;&lt;/div&gt;&lt;/div&gt;&lt;/div&gt;" style="text;strokeColor=none;fillColor=none;align=left;verticalAlign=top;spacingLeft=4;spacingRight=4;overflow=hidden;rotatable=0;points=[[0,0.5],[1,0.5]];portConstraint=eastwest;whiteSpace=wrap;html=1;" parent="l9Mz849p4_vfrACw8KPh-40" vertex="1">
          <mxGeometry y="108" width="160" height="72" as="geometry" />
        </mxCell>
        <mxCell id="l9Mz849p4_vfrACw8KPh-44" value="CLASSROOM" style="swimlane;fontStyle=1;align=center;verticalAlign=top;childLayout=stackLayout;horizontal=1;startSize=26;horizontalStack=0;resizeParent=1;resizeParentMax=0;resizeLast=0;collapsible=1;marginBottom=0;whiteSpace=wrap;html=1;" parent="1" vertex="1">
          <mxGeometry x="140" y="400" width="160" height="120" as="geometry" />
        </mxCell>
        <mxCell id="l9Mz849p4_vfrACw8KPh-45" value="+ name: String" style="text;strokeColor=none;fillColor=none;align=left;verticalAlign=top;spacingLeft=4;spacingRight=4;overflow=hidden;rotatable=0;points=[[0,0.5],[1,0.5]];portConstraint=eastwest;whiteSpace=wrap;html=1;" parent="l9Mz849p4_vfrACw8KPh-44" vertex="1">
          <mxGeometry y="26" width="160" height="26" as="geometry" />
        </mxCell>
        <mxCell id="l9Mz849p4_vfrACw8KPh-46" value="" style="line;strokeWidth=1;fillColor=none;align=left;verticalAlign=middle;spacingTop=-1;spacingLeft=3;spacingRight=3;rotatable=0;labelPosition=right;points=[];portConstraint=eastwest;strokeColor=inherit;" parent="l9Mz849p4_vfrACw8KPh-44" vertex="1">
          <mxGeometry y="52" width="160" height="8" as="geometry" />
        </mxCell>
        <mxCell id="l9Mz849p4_vfrACw8KPh-47" value="&lt;div&gt;&lt;div&gt;+ Create()&lt;div&gt;+Update()&lt;/div&gt;&lt;div&gt;&lt;br&gt;&lt;div&gt;&lt;br&gt;&lt;/div&gt;&lt;/div&gt;&lt;/div&gt;&lt;/div&gt;" style="text;strokeColor=none;fillColor=none;align=left;verticalAlign=top;spacingLeft=4;spacingRight=4;overflow=hidden;rotatable=0;points=[[0,0.5],[1,0.5]];portConstraint=eastwest;whiteSpace=wrap;html=1;" parent="l9Mz849p4_vfrACw8KPh-44" vertex="1">
          <mxGeometry y="60" width="160" height="60" as="geometry" />
        </mxCell>
        <mxCell id="l9Mz849p4_vfrACw8KPh-67" style="edgeStyle=orthogonalEdgeStyle;rounded=0;orthogonalLoop=1;jettySize=auto;html=1;entryX=1;entryY=0.5;entryDx=0;entryDy=0;" parent="1" source="l9Mz849p4_vfrACw8KPh-58" target="l9Mz849p4_vfrACw8KPh-43" edge="1">
          <mxGeometry relative="1" as="geometry" />
        </mxCell>
        <mxCell id="l9Mz849p4_vfrACw8KPh-58" value="TEACHER" style="swimlane;fontStyle=1;align=center;verticalAlign=top;childLayout=stackLayout;horizontal=1;startSize=26;horizontalStack=0;resizeParent=1;resizeParentMax=0;resizeLast=0;collapsible=1;marginBottom=0;whiteSpace=wrap;html=1;" parent="1" vertex="1">
          <mxGeometry x="450" y="20" width="160" height="62" as="geometry" />
        </mxCell>
        <mxCell id="l9Mz849p4_vfrACw8KPh-59" value="&lt;div&gt;&lt;br&gt;&lt;/div&gt;&lt;div&gt;&lt;br&gt;&lt;/div&gt;" style="text;strokeColor=none;fillColor=none;align=left;verticalAlign=top;spacingLeft=4;spacingRight=4;overflow=hidden;rotatable=0;points=[[0,0.5],[1,0.5]];portConstraint=eastwest;whiteSpace=wrap;html=1;" parent="l9Mz849p4_vfrACw8KPh-58" vertex="1">
          <mxGeometry y="26" width="160" height="26" as="geometry" />
        </mxCell>
        <mxCell id="l9Mz849p4_vfrACw8KPh-60" value="" style="line;strokeWidth=1;fillColor=none;align=left;verticalAlign=middle;spacingTop=-1;spacingLeft=3;spacingRight=3;rotatable=0;labelPosition=right;points=[];portConstraint=eastwest;strokeColor=inherit;" parent="l9Mz849p4_vfrACw8KPh-58" vertex="1">
          <mxGeometry y="52" width="160" height="10" as="geometry" />
        </mxCell>
        <mxCell id="l9Mz849p4_vfrACw8KPh-68" style="edgeStyle=orthogonalEdgeStyle;rounded=0;orthogonalLoop=1;jettySize=auto;html=1;entryX=0;entryY=0.5;entryDx=0;entryDy=0;" parent="1" source="l9Mz849p4_vfrACw8KPh-63" target="l9Mz849p4_vfrACw8KPh-43" edge="1">
          <mxGeometry relative="1" as="geometry" />
        </mxCell>
        <mxCell id="l9Mz849p4_vfrACw8KPh-63" value="STUDENT" style="swimlane;fontStyle=1;align=center;verticalAlign=top;childLayout=stackLayout;horizontal=1;startSize=26;horizontalStack=0;resizeParent=1;resizeParentMax=0;resizeLast=0;collapsible=1;marginBottom=0;whiteSpace=wrap;html=1;" parent="1" vertex="1">
          <mxGeometry x="-150" y="134" width="160" height="60" as="geometry" />
        </mxCell>
        <mxCell id="l9Mz849p4_vfrACw8KPh-64" value="&lt;div&gt;&lt;br&gt;&lt;/div&gt;&lt;div&gt;&lt;br&gt;&lt;/div&gt;" style="text;strokeColor=none;fillColor=none;align=left;verticalAlign=top;spacingLeft=4;spacingRight=4;overflow=hidden;rotatable=0;points=[[0,0.5],[1,0.5]];portConstraint=eastwest;whiteSpace=wrap;html=1;" parent="l9Mz849p4_vfrACw8KPh-63" vertex="1">
          <mxGeometry y="26" width="160" height="26" as="geometry" />
        </mxCell>
        <mxCell id="l9Mz849p4_vfrACw8KPh-65" value="" style="line;strokeWidth=1;fillColor=none;align=left;verticalAlign=middle;spacingTop=-1;spacingLeft=3;spacingRight=3;rotatable=0;labelPosition=right;points=[];portConstraint=eastwest;strokeColor=inherit;" parent="l9Mz849p4_vfrACw8KPh-63" vertex="1">
          <mxGeometry y="52" width="160" height="8" as="geometry" />
        </mxCell>
        <mxCell id="l9Mz849p4_vfrACw8KPh-77" value="LEVEL" style="swimlane;fontStyle=1;align=center;verticalAlign=top;childLayout=stackLayout;horizontal=1;startSize=26;horizontalStack=0;resizeParent=1;resizeParentMax=0;resizeLast=0;collapsible=1;marginBottom=0;whiteSpace=wrap;html=1;" parent="1" vertex="1">
          <mxGeometry x="590" y="410" width="160" height="120" as="geometry" />
        </mxCell>
        <mxCell id="l9Mz849p4_vfrACw8KPh-78" value="+ name: String" style="text;strokeColor=none;fillColor=none;align=left;verticalAlign=top;spacingLeft=4;spacingRight=4;overflow=hidden;rotatable=0;points=[[0,0.5],[1,0.5]];portConstraint=eastwest;whiteSpace=wrap;html=1;" parent="l9Mz849p4_vfrACw8KPh-77" vertex="1">
          <mxGeometry y="26" width="160" height="26" as="geometry" />
        </mxCell>
        <mxCell id="l9Mz849p4_vfrACw8KPh-79" value="" style="line;strokeWidth=1;fillColor=none;align=left;verticalAlign=middle;spacingTop=-1;spacingLeft=3;spacingRight=3;rotatable=0;labelPosition=right;points=[];portConstraint=eastwest;strokeColor=inherit;" parent="l9Mz849p4_vfrACw8KPh-77" vertex="1">
          <mxGeometry y="52" width="160" height="8" as="geometry" />
        </mxCell>
        <mxCell id="l9Mz849p4_vfrACw8KPh-80" value="&lt;div&gt;&lt;div&gt;+ Create()&lt;div&gt;+Update()&lt;/div&gt;&lt;div&gt;&lt;br&gt;&lt;div&gt;&lt;br&gt;&lt;/div&gt;&lt;/div&gt;&lt;/div&gt;&lt;/div&gt;" style="text;strokeColor=none;fillColor=none;align=left;verticalAlign=top;spacingLeft=4;spacingRight=4;overflow=hidden;rotatable=0;points=[[0,0.5],[1,0.5]];portConstraint=eastwest;whiteSpace=wrap;html=1;" parent="l9Mz849p4_vfrACw8KPh-77" vertex="1">
          <mxGeometry y="60" width="160" height="60" as="geometry" />
        </mxCell>
        <mxCell id="l9Mz849p4_vfrACw8KPh-81" value="" style="endArrow=none;html=1;edgeStyle=orthogonalEdgeStyle;rounded=0;exitX=1.009;exitY=0.033;exitDx=0;exitDy=0;exitPerimeter=0;" parent="1" source="l9Mz849p4_vfrACw8KPh-47" edge="1" target="l9Mz849p4_vfrACw8KPh-79">
          <mxGeometry relative="1" as="geometry">
            <mxPoint x="390" y="460" as="sourcePoint" />
            <mxPoint x="590" y="460" as="targetPoint" />
            <Array as="points">
              <mxPoint x="301" y="466" />
            </Array>
          </mxGeometry>
        </mxCell>
        <mxCell id="l9Mz849p4_vfrACw8KPh-82" value="1" style="edgeLabel;resizable=0;html=1;align=left;verticalAlign=bottom;" parent="l9Mz849p4_vfrACw8KPh-81" connectable="0" vertex="1">
          <mxGeometry x="-1" relative="1" as="geometry" />
        </mxCell>
        <mxCell id="l9Mz849p4_vfrACw8KPh-83" value="0,n" style="edgeLabel;resizable=0;html=1;align=right;verticalAlign=bottom;" parent="l9Mz849p4_vfrACw8KPh-81" connectable="0" vertex="1">
          <mxGeometry x="1" relative="1" as="geometry">
            <mxPoint x="-10" as="offset" />
          </mxGeometry>
        </mxCell>
        <mxCell id="l9Mz849p4_vfrACw8KPh-89" value="Avoir" style="text;align=center;fontStyle=1;verticalAlign=middle;spacingLeft=3;spacingRight=3;strokeColor=none;rotatable=0;points=[[0,0.5],[1,0.5]];portConstraint=eastwest;html=1;" parent="1" vertex="1">
          <mxGeometry x="390" y="430" width="80" height="26" as="geometry" />
        </mxCell>
        <mxCell id="l9Mz849p4_vfrACw8KPh-90" value="COURSES" style="swimlane;fontStyle=1;align=center;verticalAlign=top;childLayout=stackLayout;horizontal=1;startSize=26;horizontalStack=0;resizeParent=1;resizeParentMax=0;resizeLast=0;collapsible=1;marginBottom=0;whiteSpace=wrap;html=1;" parent="1" vertex="1">
          <mxGeometry x="390" y="670" width="160" height="120" as="geometry" />
        </mxCell>
        <mxCell id="l9Mz849p4_vfrACw8KPh-91" value="+ name: String" style="text;strokeColor=none;fillColor=none;align=left;verticalAlign=top;spacingLeft=4;spacingRight=4;overflow=hidden;rotatable=0;points=[[0,0.5],[1,0.5]];portConstraint=eastwest;whiteSpace=wrap;html=1;" parent="l9Mz849p4_vfrACw8KPh-90" vertex="1">
          <mxGeometry y="26" width="160" height="26" as="geometry" />
        </mxCell>
        <mxCell id="l9Mz849p4_vfrACw8KPh-92" value="" style="line;strokeWidth=1;fillColor=none;align=left;verticalAlign=middle;spacingTop=-1;spacingLeft=3;spacingRight=3;rotatable=0;labelPosition=right;points=[];portConstraint=eastwest;strokeColor=inherit;" parent="l9Mz849p4_vfrACw8KPh-90" vertex="1">
          <mxGeometry y="52" width="160" height="8" as="geometry" />
        </mxCell>
        <mxCell id="l9Mz849p4_vfrACw8KPh-93" value="&lt;div&gt;&lt;div&gt;+ Create()&lt;div&gt;+Update()&lt;/div&gt;&lt;div&gt;&lt;br&gt;&lt;div&gt;&lt;br&gt;&lt;/div&gt;&lt;/div&gt;&lt;/div&gt;&lt;/div&gt;" style="text;strokeColor=none;fillColor=none;align=left;verticalAlign=top;spacingLeft=4;spacingRight=4;overflow=hidden;rotatable=0;points=[[0,0.5],[1,0.5]];portConstraint=eastwest;whiteSpace=wrap;html=1;" parent="l9Mz849p4_vfrACw8KPh-90" vertex="1">
          <mxGeometry y="60" width="160" height="60" as="geometry" />
        </mxCell>
        <mxCell id="l9Mz849p4_vfrACw8KPh-94" value="" style="endArrow=none;html=1;edgeStyle=orthogonalEdgeStyle;rounded=0;exitX=1;exitY=0.5;exitDx=0;exitDy=0;" parent="1" source="l9Mz849p4_vfrACw8KPh-91" edge="1">
          <mxGeometry relative="1" as="geometry">
            <mxPoint x="590" y="711" as="sourcePoint" />
            <mxPoint x="600" y="530" as="targetPoint" />
            <Array as="points">
              <mxPoint x="550" y="690" />
              <mxPoint x="616" y="690" />
              <mxPoint x="616" y="530" />
            </Array>
          </mxGeometry>
        </mxCell>
        <mxCell id="l9Mz849p4_vfrACw8KPh-95" value="1" style="edgeLabel;resizable=0;html=1;align=left;verticalAlign=bottom;" parent="l9Mz849p4_vfrACw8KPh-94" connectable="0" vertex="1">
          <mxGeometry x="-1" relative="1" as="geometry">
            <mxPoint x="10" y="-19" as="offset" />
          </mxGeometry>
        </mxCell>
        <mxCell id="l9Mz849p4_vfrACw8KPh-96" value="0,n" style="edgeLabel;resizable=0;html=1;align=right;verticalAlign=bottom;" parent="l9Mz849p4_vfrACw8KPh-94" connectable="0" vertex="1">
          <mxGeometry x="1" relative="1" as="geometry">
            <mxPoint x="10" y="20" as="offset" />
          </mxGeometry>
        </mxCell>
        <mxCell id="l9Mz849p4_vfrACw8KPh-97" value="Lier" style="text;align=center;fontStyle=1;verticalAlign=middle;spacingLeft=3;spacingRight=3;strokeColor=none;rotatable=0;points=[[0,0.5],[1,0.5]];portConstraint=eastwest;html=1;" parent="1" vertex="1">
          <mxGeometry x="560" y="600" width="80" height="26" as="geometry" />
        </mxCell>
        <mxCell id="l9Mz849p4_vfrACw8KPh-98" value="ACADEMIE YEAR" style="swimlane;fontStyle=1;align=center;verticalAlign=top;childLayout=stackLayout;horizontal=1;startSize=26;horizontalStack=0;resizeParent=1;resizeParentMax=0;resizeLast=0;collapsible=1;marginBottom=0;whiteSpace=wrap;html=1;" parent="1" vertex="1">
          <mxGeometry x="660" y="840" width="160" height="120" as="geometry" />
        </mxCell>
        <mxCell id="l9Mz849p4_vfrACw8KPh-99" value="+ date: Date" style="text;strokeColor=none;fillColor=none;align=left;verticalAlign=top;spacingLeft=4;spacingRight=4;overflow=hidden;rotatable=0;points=[[0,0.5],[1,0.5]];portConstraint=eastwest;whiteSpace=wrap;html=1;" parent="l9Mz849p4_vfrACw8KPh-98" vertex="1">
          <mxGeometry y="26" width="160" height="26" as="geometry" />
        </mxCell>
        <mxCell id="l9Mz849p4_vfrACw8KPh-100" value="" style="line;strokeWidth=1;fillColor=none;align=left;verticalAlign=middle;spacingTop=-1;spacingLeft=3;spacingRight=3;rotatable=0;labelPosition=right;points=[];portConstraint=eastwest;strokeColor=inherit;" parent="l9Mz849p4_vfrACw8KPh-98" vertex="1">
          <mxGeometry y="52" width="160" height="8" as="geometry" />
        </mxCell>
        <mxCell id="l9Mz849p4_vfrACw8KPh-101" value="&lt;div&gt;&lt;div&gt;+ Create()&lt;div&gt;+Update()&lt;/div&gt;&lt;div&gt;&lt;br&gt;&lt;div&gt;&lt;br&gt;&lt;/div&gt;&lt;/div&gt;&lt;/div&gt;&lt;/div&gt;" style="text;strokeColor=none;fillColor=none;align=left;verticalAlign=top;spacingLeft=4;spacingRight=4;overflow=hidden;rotatable=0;points=[[0,0.5],[1,0.5]];portConstraint=eastwest;whiteSpace=wrap;html=1;" parent="l9Mz849p4_vfrACw8KPh-98" vertex="1">
          <mxGeometry y="60" width="160" height="60" as="geometry" />
        </mxCell>
        <mxCell id="l9Mz849p4_vfrACw8KPh-102" value="" style="endArrow=none;html=1;edgeStyle=orthogonalEdgeStyle;rounded=0;entryX=0.25;entryY=0;entryDx=0;entryDy=0;" parent="1" target="l9Mz849p4_vfrACw8KPh-98" edge="1">
          <mxGeometry relative="1" as="geometry">
            <mxPoint x="550" y="780" as="sourcePoint" />
            <mxPoint x="710" y="780" as="targetPoint" />
          </mxGeometry>
        </mxCell>
        <mxCell id="l9Mz849p4_vfrACw8KPh-103" value="0,n" style="edgeLabel;resizable=0;html=1;align=left;verticalAlign=bottom;" parent="l9Mz849p4_vfrACw8KPh-102" connectable="0" vertex="1">
          <mxGeometry x="-1" relative="1" as="geometry" />
        </mxCell>
        <mxCell id="l9Mz849p4_vfrACw8KPh-104" value="0,n" style="edgeLabel;resizable=0;html=1;align=right;verticalAlign=bottom;" parent="l9Mz849p4_vfrACw8KPh-102" connectable="0" vertex="1">
          <mxGeometry x="1" relative="1" as="geometry" />
        </mxCell>
        <mxCell id="l9Mz849p4_vfrACw8KPh-105" value="Contenir" style="text;align=center;fontStyle=1;verticalAlign=middle;spacingLeft=3;spacingRight=3;strokeColor=none;rotatable=0;points=[[0,0.5],[1,0.5]];portConstraint=eastwest;html=1;" parent="1" vertex="1">
          <mxGeometry x="620" y="750" width="80" height="26" as="geometry" />
        </mxCell>
        <mxCell id="l9Mz849p4_vfrACw8KPh-106" value="TIME TABLE" style="swimlane;fontStyle=1;align=center;verticalAlign=top;childLayout=stackLayout;horizontal=1;startSize=26;horizontalStack=0;resizeParent=1;resizeParentMax=0;resizeLast=0;collapsible=1;marginBottom=0;whiteSpace=wrap;html=1;" parent="1" vertex="1">
          <mxGeometry x="170" y="900" width="160" height="120" as="geometry" />
        </mxCell>
        <mxCell id="l9Mz849p4_vfrACw8KPh-107" value="+ nom: String&lt;div&gt;&lt;br&gt;&lt;/div&gt;&lt;div&gt;&lt;br&gt;&lt;/div&gt;" style="text;strokeColor=none;fillColor=none;align=left;verticalAlign=top;spacingLeft=4;spacingRight=4;overflow=hidden;rotatable=0;points=[[0,0.5],[1,0.5]];portConstraint=eastwest;whiteSpace=wrap;html=1;" parent="l9Mz849p4_vfrACw8KPh-106" vertex="1">
          <mxGeometry y="26" width="160" height="26" as="geometry" />
        </mxCell>
        <mxCell id="l9Mz849p4_vfrACw8KPh-108" value="" style="line;strokeWidth=1;fillColor=none;align=left;verticalAlign=middle;spacingTop=-1;spacingLeft=3;spacingRight=3;rotatable=0;labelPosition=right;points=[];portConstraint=eastwest;strokeColor=inherit;" parent="l9Mz849p4_vfrACw8KPh-106" vertex="1">
          <mxGeometry y="52" width="160" height="8" as="geometry" />
        </mxCell>
        <mxCell id="l9Mz849p4_vfrACw8KPh-109" value="&lt;div&gt;&lt;div&gt;+ Create()&lt;div&gt;+Update()&lt;/div&gt;&lt;div&gt;&lt;br&gt;&lt;div&gt;&lt;br&gt;&lt;/div&gt;&lt;/div&gt;&lt;/div&gt;&lt;/div&gt;" style="text;strokeColor=none;fillColor=none;align=left;verticalAlign=top;spacingLeft=4;spacingRight=4;overflow=hidden;rotatable=0;points=[[0,0.5],[1,0.5]];portConstraint=eastwest;whiteSpace=wrap;html=1;" parent="l9Mz849p4_vfrACw8KPh-106" vertex="1">
          <mxGeometry y="60" width="160" height="60" as="geometry" />
        </mxCell>
        <mxCell id="l9Mz849p4_vfrACw8KPh-110" value="ROOM" style="swimlane;fontStyle=1;align=center;verticalAlign=top;childLayout=stackLayout;horizontal=1;startSize=26;horizontalStack=0;resizeParent=1;resizeParentMax=0;resizeLast=0;collapsible=1;marginBottom=0;whiteSpace=wrap;html=1;" parent="1" vertex="1">
          <mxGeometry x="-220" y="456" width="160" height="120" as="geometry" />
        </mxCell>
        <mxCell id="l9Mz849p4_vfrACw8KPh-111" value="+ name: String" style="text;strokeColor=none;fillColor=none;align=left;verticalAlign=top;spacingLeft=4;spacingRight=4;overflow=hidden;rotatable=0;points=[[0,0.5],[1,0.5]];portConstraint=eastwest;whiteSpace=wrap;html=1;" parent="l9Mz849p4_vfrACw8KPh-110" vertex="1">
          <mxGeometry y="26" width="160" height="26" as="geometry" />
        </mxCell>
        <mxCell id="l9Mz849p4_vfrACw8KPh-112" value="" style="line;strokeWidth=1;fillColor=none;align=left;verticalAlign=middle;spacingTop=-1;spacingLeft=3;spacingRight=3;rotatable=0;labelPosition=right;points=[];portConstraint=eastwest;strokeColor=inherit;" parent="l9Mz849p4_vfrACw8KPh-110" vertex="1">
          <mxGeometry y="52" width="160" height="8" as="geometry" />
        </mxCell>
        <mxCell id="l9Mz849p4_vfrACw8KPh-113" value="&lt;div&gt;&lt;div&gt;+ Create()&lt;div&gt;+Update()&lt;/div&gt;&lt;div&gt;&lt;br&gt;&lt;div&gt;&lt;br&gt;&lt;/div&gt;&lt;/div&gt;&lt;/div&gt;&lt;/div&gt;" style="text;strokeColor=none;fillColor=none;align=left;verticalAlign=top;spacingLeft=4;spacingRight=4;overflow=hidden;rotatable=0;points=[[0,0.5],[1,0.5]];portConstraint=eastwest;whiteSpace=wrap;html=1;" parent="l9Mz849p4_vfrACw8KPh-110" vertex="1">
          <mxGeometry y="60" width="160" height="60" as="geometry" />
        </mxCell>
        <mxCell id="l9Mz849p4_vfrACw8KPh-114" value="COURSES SESSION" style="swimlane;fontStyle=1;align=center;verticalAlign=top;childLayout=stackLayout;horizontal=1;startSize=26;horizontalStack=0;resizeParent=1;resizeParentMax=0;resizeLast=0;collapsible=1;marginBottom=0;whiteSpace=wrap;html=1;" parent="1" vertex="1">
          <mxGeometry x="-20" y="660" width="160" height="120" as="geometry" />
        </mxCell>
        <mxCell id="l9Mz849p4_vfrACw8KPh-115" value="+ name: String" style="text;strokeColor=none;fillColor=none;align=left;verticalAlign=top;spacingLeft=4;spacingRight=4;overflow=hidden;rotatable=0;points=[[0,0.5],[1,0.5]];portConstraint=eastwest;whiteSpace=wrap;html=1;" parent="l9Mz849p4_vfrACw8KPh-114" vertex="1">
          <mxGeometry y="26" width="160" height="26" as="geometry" />
        </mxCell>
        <mxCell id="l9Mz849p4_vfrACw8KPh-116" value="" style="line;strokeWidth=1;fillColor=none;align=left;verticalAlign=middle;spacingTop=-1;spacingLeft=3;spacingRight=3;rotatable=0;labelPosition=right;points=[];portConstraint=eastwest;strokeColor=inherit;" parent="l9Mz849p4_vfrACw8KPh-114" vertex="1">
          <mxGeometry y="52" width="160" height="8" as="geometry" />
        </mxCell>
        <mxCell id="l9Mz849p4_vfrACw8KPh-117" value="&lt;div&gt;&lt;div&gt;+ Create()&lt;div&gt;+Update()&lt;/div&gt;&lt;div&gt;&lt;br&gt;&lt;div&gt;&lt;br&gt;&lt;/div&gt;&lt;/div&gt;&lt;/div&gt;&lt;/div&gt;" style="text;strokeColor=none;fillColor=none;align=left;verticalAlign=top;spacingLeft=4;spacingRight=4;overflow=hidden;rotatable=0;points=[[0,0.5],[1,0.5]];portConstraint=eastwest;whiteSpace=wrap;html=1;" parent="l9Mz849p4_vfrACw8KPh-114" vertex="1">
          <mxGeometry y="60" width="160" height="60" as="geometry" />
        </mxCell>
        <mxCell id="l9Mz849p4_vfrACw8KPh-122" style="edgeStyle=orthogonalEdgeStyle;rounded=0;orthogonalLoop=1;jettySize=auto;html=1;entryX=1.004;entryY=0.807;entryDx=0;entryDy=0;entryPerimeter=0;" parent="1" source="l9Mz849p4_vfrACw8KPh-118" target="l9Mz849p4_vfrACw8KPh-43" edge="1">
          <mxGeometry relative="1" as="geometry">
            <mxPoint x="290" y="180" as="targetPoint" />
          </mxGeometry>
        </mxCell>
        <mxCell id="l9Mz849p4_vfrACw8KPh-118" value="ADMISTRATOR" style="swimlane;fontStyle=1;align=center;verticalAlign=top;childLayout=stackLayout;horizontal=1;startSize=26;horizontalStack=0;resizeParent=1;resizeParentMax=0;resizeLast=0;collapsible=1;marginBottom=0;whiteSpace=wrap;html=1;" parent="1" vertex="1">
          <mxGeometry x="470" y="250" width="160" height="60" as="geometry" />
        </mxCell>
        <mxCell id="l9Mz849p4_vfrACw8KPh-119" value="&lt;div&gt;&lt;br&gt;&lt;/div&gt;&lt;div&gt;&lt;br&gt;&lt;/div&gt;" style="text;strokeColor=none;fillColor=none;align=left;verticalAlign=top;spacingLeft=4;spacingRight=4;overflow=hidden;rotatable=0;points=[[0,0.5],[1,0.5]];portConstraint=eastwest;whiteSpace=wrap;html=1;" parent="l9Mz849p4_vfrACw8KPh-118" vertex="1">
          <mxGeometry y="26" width="160" height="26" as="geometry" />
        </mxCell>
        <mxCell id="l9Mz849p4_vfrACw8KPh-120" value="" style="line;strokeWidth=1;fillColor=none;align=left;verticalAlign=middle;spacingTop=-1;spacingLeft=3;spacingRight=3;rotatable=0;labelPosition=right;points=[];portConstraint=eastwest;strokeColor=inherit;" parent="l9Mz849p4_vfrACw8KPh-118" vertex="1">
          <mxGeometry y="52" width="160" height="8" as="geometry" />
        </mxCell>
        <mxCell id="l9Mz849p4_vfrACw8KPh-144" value="" style="endArrow=none;html=1;edgeStyle=orthogonalEdgeStyle;rounded=0;exitX=0.25;exitY=0;exitDx=0;exitDy=0;" parent="1" edge="1">
          <mxGeometry relative="1" as="geometry">
            <mxPoint x="172.08" y="400" as="sourcePoint" />
            <mxPoint x="268" y="200" as="targetPoint" />
          </mxGeometry>
        </mxCell>
        <mxCell id="l9Mz849p4_vfrACw8KPh-145" value="0,n" style="edgeLabel;resizable=0;html=1;align=left;verticalAlign=bottom;" parent="l9Mz849p4_vfrACw8KPh-144" connectable="0" vertex="1">
          <mxGeometry x="-1" relative="1" as="geometry">
            <mxPoint x="68" as="offset" />
          </mxGeometry>
        </mxCell>
        <mxCell id="l9Mz849p4_vfrACw8KPh-146" value="0,n" style="edgeLabel;resizable=0;html=1;align=right;verticalAlign=bottom;" parent="l9Mz849p4_vfrACw8KPh-144" connectable="0" vertex="1">
          <mxGeometry x="1" relative="1" as="geometry">
            <mxPoint x="-16" y="19" as="offset" />
          </mxGeometry>
        </mxCell>
        <mxCell id="l9Mz849p4_vfrACw8KPh-147" value="" style="endArrow=none;html=1;edgeStyle=orthogonalEdgeStyle;rounded=0;entryX=0.25;entryY=0;entryDx=0;entryDy=0;" parent="1" source="l9Mz849p4_vfrACw8KPh-117" target="l9Mz849p4_vfrACw8KPh-106" edge="1">
          <mxGeometry relative="1" as="geometry">
            <mxPoint x="50" y="850" as="sourcePoint" />
            <mxPoint x="210" y="890" as="targetPoint" />
          </mxGeometry>
        </mxCell>
        <mxCell id="l9Mz849p4_vfrACw8KPh-148" value="1" style="edgeLabel;resizable=0;html=1;align=left;verticalAlign=bottom;" parent="l9Mz849p4_vfrACw8KPh-147" connectable="0" vertex="1">
          <mxGeometry x="-1" relative="1" as="geometry" />
        </mxCell>
        <mxCell id="l9Mz849p4_vfrACw8KPh-149" value="0,n" style="edgeLabel;resizable=0;html=1;align=right;verticalAlign=bottom;" parent="l9Mz849p4_vfrACw8KPh-147" connectable="0" vertex="1">
          <mxGeometry x="1" relative="1" as="geometry">
            <mxPoint x="-10" as="offset" />
          </mxGeometry>
        </mxCell>
        <mxCell id="l9Mz849p4_vfrACw8KPh-150" value="" style="endArrow=none;html=1;edgeStyle=orthogonalEdgeStyle;rounded=0;entryX=0.026;entryY=0.846;entryDx=0;entryDy=0;entryPerimeter=0;exitX=1.024;exitY=-0.02;exitDx=0;exitDy=0;exitPerimeter=0;" parent="1" source="l9Mz849p4_vfrACw8KPh-117" target="l9Mz849p4_vfrACw8KPh-91" edge="1">
          <mxGeometry relative="1" as="geometry">
            <mxPoint x="220" y="719.5" as="sourcePoint" />
            <mxPoint x="380" y="719.5" as="targetPoint" />
          </mxGeometry>
        </mxCell>
        <mxCell id="l9Mz849p4_vfrACw8KPh-151" value="1" style="edgeLabel;resizable=0;html=1;align=left;verticalAlign=bottom;" parent="l9Mz849p4_vfrACw8KPh-150" connectable="0" vertex="1">
          <mxGeometry x="-1" relative="1" as="geometry" />
        </mxCell>
        <mxCell id="l9Mz849p4_vfrACw8KPh-152" value="0,n" style="edgeLabel;resizable=0;html=1;align=right;verticalAlign=bottom;" parent="l9Mz849p4_vfrACw8KPh-150" connectable="0" vertex="1">
          <mxGeometry x="1" relative="1" as="geometry">
            <mxPoint x="-14" as="offset" />
          </mxGeometry>
        </mxCell>
        <mxCell id="l9Mz849p4_vfrACw8KPh-153" value="" style="endArrow=none;html=1;edgeStyle=orthogonalEdgeStyle;rounded=0;entryX=0.209;entryY=-0.003;entryDx=0;entryDy=0;entryPerimeter=0;" parent="1" target="l9Mz849p4_vfrACw8KPh-114" edge="1">
          <mxGeometry relative="1" as="geometry">
            <mxPoint x="-60" y="556" as="sourcePoint" />
            <mxPoint x="10" y="650" as="targetPoint" />
          </mxGeometry>
        </mxCell>
        <mxCell id="l9Mz849p4_vfrACw8KPh-154" value="0,n" style="edgeLabel;resizable=0;html=1;align=left;verticalAlign=bottom;" parent="l9Mz849p4_vfrACw8KPh-153" connectable="0" vertex="1">
          <mxGeometry x="-1" relative="1" as="geometry" />
        </mxCell>
        <mxCell id="l9Mz849p4_vfrACw8KPh-155" value="1" style="edgeLabel;resizable=0;html=1;align=right;verticalAlign=bottom;" parent="l9Mz849p4_vfrACw8KPh-153" connectable="0" vertex="1">
          <mxGeometry x="1" relative="1" as="geometry">
            <mxPoint x="-13" as="offset" />
          </mxGeometry>
        </mxCell>
        <mxCell id="l9Mz849p4_vfrACw8KPh-156" value="" style="endArrow=none;html=1;edgeStyle=orthogonalEdgeStyle;rounded=0;exitX=0.199;exitY=0.993;exitDx=0;exitDy=0;exitPerimeter=0;entryX=0.75;entryY=0;entryDx=0;entryDy=0;" parent="1" source="l9Mz849p4_vfrACw8KPh-47" target="l9Mz849p4_vfrACw8KPh-114" edge="1">
          <mxGeometry relative="1" as="geometry">
            <mxPoint x="110" y="600" as="sourcePoint" />
            <mxPoint x="270" y="600" as="targetPoint" />
          </mxGeometry>
        </mxCell>
        <mxCell id="l9Mz849p4_vfrACw8KPh-157" value="1" style="edgeLabel;resizable=0;html=1;align=left;verticalAlign=bottom;" parent="l9Mz849p4_vfrACw8KPh-156" connectable="0" vertex="1">
          <mxGeometry x="-1" relative="1" as="geometry">
            <mxPoint x="8" y="20" as="offset" />
          </mxGeometry>
        </mxCell>
        <mxCell id="l9Mz849p4_vfrACw8KPh-158" value="1" style="edgeLabel;resizable=0;html=1;align=right;verticalAlign=bottom;" parent="l9Mz849p4_vfrACw8KPh-156" connectable="0" vertex="1">
          <mxGeometry x="1" relative="1" as="geometry">
            <mxPoint x="-10" as="offset" />
          </mxGeometry>
        </mxCell>
        <mxCell id="l9Mz849p4_vfrACw8KPh-159" value="" style="endArrow=none;html=1;edgeStyle=orthogonalEdgeStyle;rounded=0;entryX=0;entryY=1;entryDx=0;entryDy=0;entryPerimeter=0;exitX=0.375;exitY=0;exitDx=0;exitDy=0;exitPerimeter=0;" parent="1" source="l9Mz849p4_vfrACw8KPh-114" target="l9Mz849p4_vfrACw8KPh-43" edge="1">
          <mxGeometry relative="1" as="geometry">
            <mxPoint x="-30" y="480" as="sourcePoint" />
            <mxPoint x="130" y="270" as="targetPoint" />
            <Array as="points">
              <mxPoint x="40" y="430" />
              <mxPoint x="130" y="430" />
              <mxPoint x="130" y="200" />
            </Array>
          </mxGeometry>
        </mxCell>
        <mxCell id="l9Mz849p4_vfrACw8KPh-160" value="1" style="edgeLabel;resizable=0;html=1;align=left;verticalAlign=bottom;" parent="l9Mz849p4_vfrACw8KPh-159" connectable="0" vertex="1">
          <mxGeometry x="-1" relative="1" as="geometry">
            <mxPoint x="10" as="offset" />
          </mxGeometry>
        </mxCell>
        <mxCell id="l9Mz849p4_vfrACw8KPh-161" value="0,n" style="edgeLabel;resizable=0;html=1;align=right;verticalAlign=bottom;" parent="l9Mz849p4_vfrACw8KPh-159" connectable="0" vertex="1">
          <mxGeometry x="1" relative="1" as="geometry">
            <mxPoint x="-10" as="offset" />
          </mxGeometry>
        </mxCell>
        <mxCell id="l9Mz849p4_vfrACw8KPh-162" value="Avoir" style="text;align=center;fontStyle=1;verticalAlign=middle;spacingLeft=3;spacingRight=3;strokeColor=none;rotatable=0;points=[[0,0.5],[1,0.5]];portConstraint=eastwest;html=1;" parent="1" vertex="1">
          <mxGeometry x="150" y="800" width="80" height="26" as="geometry" />
        </mxCell>
        <mxCell id="l9Mz849p4_vfrACw8KPh-163" value="Avoir" style="text;align=center;fontStyle=1;verticalAlign=middle;spacingLeft=3;spacingRight=3;strokeColor=none;rotatable=0;points=[[0,0.5],[1,0.5]];portConstraint=eastwest;html=1;" parent="1" vertex="1">
          <mxGeometry x="220" y="690" width="80" height="26" as="geometry" />
        </mxCell>
        <mxCell id="l9Mz849p4_vfrACw8KPh-164" value="A definir" style="text;align=center;fontStyle=1;verticalAlign=middle;spacingLeft=3;spacingRight=3;strokeColor=none;rotatable=0;points=[[0,0.5],[1,0.5]];portConstraint=eastwest;html=1;" parent="1" vertex="1">
          <mxGeometry x="-60" y="550" width="80" height="26" as="geometry" />
        </mxCell>
        <mxCell id="l9Mz849p4_vfrACw8KPh-165" value="A definir" style="text;align=center;fontStyle=1;verticalAlign=middle;spacingLeft=3;spacingRight=3;strokeColor=none;rotatable=0;points=[[0,0.5],[1,0.5]];portConstraint=eastwest;html=1;" parent="1" vertex="1">
          <mxGeometry x="100" y="560" width="80" height="26" as="geometry" />
        </mxCell>
        <mxCell id="l9Mz849p4_vfrACw8KPh-166" value="A definir" style="text;align=center;fontStyle=1;verticalAlign=middle;spacingLeft=3;spacingRight=3;strokeColor=none;rotatable=0;points=[[0,0.5],[1,0.5]];portConstraint=eastwest;html=1;" parent="1" vertex="1">
          <mxGeometry x="30" y="504" width="80" height="26" as="geometry" />
        </mxCell>
        <mxCell id="l9Mz849p4_vfrACw8KPh-167" value="A definir" style="text;align=center;fontStyle=1;verticalAlign=middle;spacingLeft=3;spacingRight=3;strokeColor=none;rotatable=0;points=[[0,0.5],[1,0.5]];portConstraint=eastwest;html=1;" parent="1" vertex="1">
          <mxGeometry x="200" y="270" width="80" height="26" as="geometry" />
        </mxCell>
      </root>
    </mxGraphModel>
  </diagram>
</mxfile>
